# Blender v2.82 (sub 7) OBJ File: 'ballon.blend'
# www.blender.org
mtllib ballon.mtl
o Cube_Cube.001
v -11.514793 4.050327 11.514793
v -9.847486 25.919683 9.847486
v -11.514793 4.050327 -11.514793
v -9.847486 25.919683 -9.847486
v 11.514793 4.050327 11.514793
v 9.847486 25.919683 9.847486
v 11.514793 4.050327 -11.514793
v 9.847486 25.919683 -9.847486
v -14.382607 14.985005 14.382607
v -14.382607 14.985005 -14.382607
v 14.382607 14.985005 -14.382607
v 14.382607 14.985005 14.382607
v -13.614840 9.517666 -13.614840
v 13.614840 9.517666 -13.614840
v 13.614840 9.517666 13.614840
v -13.614840 9.517666 13.614840
v -13.291356 20.452345 13.291356
v -13.291356 20.452345 -13.291356
v 13.291356 20.452345 -13.291356
v 13.291356 20.452345 13.291356
v 0.000000 4.050327 -14.258763
v 0.000000 25.919683 -12.194138
v 0.000000 4.050327 14.258763
v 0.000000 25.919683 12.194138
v 0.000000 14.985005 17.809975
v 0.000000 14.985005 -17.809975
v 0.000000 9.517666 -16.859249
v 0.000000 9.517666 16.859249
v 0.000000 20.452345 16.458679
v 0.000000 20.452345 -16.458679
v -15.283082 4.050327 0.000000
v -13.070138 25.919683 0.000000
v 15.283082 4.050327 0.000000
v 13.070138 25.919683 0.000000
v 19.089403 14.985005 0.000000
v -19.089403 14.985005 0.000000
v -18.070381 9.517666 0.000000
v 18.070381 9.517666 0.000000
v 17.641035 20.452345 0.000000
v -17.641035 20.452345 0.000000
v 7.394074 27.969025 -7.394074
v -5.357858 -11.112194 -0.000000
v -5.099334 30.018368 0.000000
v -3.842012 30.018368 -3.842012
v -0.000000 30.018368 -4.757562
v 3.842012 30.018368 -3.842012
v 5.099334 30.018368 0.000000
v 3.842012 30.018368 3.842012
v -0.000000 30.018368 4.757562
v -3.842012 30.018368 3.842012
v -0.000000 30.018368 0.000000
v -0.000000 27.969025 9.156077
v 7.394074 27.969025 7.394074
v 9.813830 27.969025 0.000000
v -7.394074 27.969025 -7.394074
v -0.000000 27.969025 -9.156077
v -7.394074 27.969025 7.394074
v -9.813830 27.969025 0.000000
v -5.357858 -5.356050 -0.000000
v -4.036793 -5.356050 4.036793
v -0.000000 -5.356050 -4.998758
v -4.036793 -5.356050 -4.036793
v 5.357857 -5.356050 -0.000000
v 4.036792 -5.356050 -4.036793
v -0.000000 -5.356050 4.998758
v 4.036792 -5.356050 4.036793
v -4.036793 -11.112194 4.036793
v -0.000000 -11.112194 -4.998758
v -4.036793 -11.112194 -4.036793
v 5.357857 -11.112194 -0.000000
v 4.036792 -11.112194 -4.036793
v -0.000000 -11.112194 4.998758
v 4.036792 -11.112194 4.036793
v -0.000000 -11.112194 -0.000000
vt 0.380000 0.485000
vt 0.380000 1.000000
vt 0.000000 1.000000
vt -0.000000 0.485000
vt 0.380000 0.485000
vt 0.380000 1.000000
vt 0.000000 1.000000
vt -0.000000 0.485000
vt 0.380000 0.485000
vt 0.380000 1.000000
vt 0.000000 1.000000
vt -0.000000 0.485000
vt 0.380000 0.485000
vt 0.380000 1.000000
vt 0.000000 1.000000
vt -0.000000 0.485000
vt 0.380000 1.000000
vt 0.000000 1.000000
vt 0.115000 0.485000
vt 0.265000 0.485000
vt 0.000000 0.485000
vt 0.380000 0.485000
vt 0.380000 1.000000
vt 0.000000 1.000000
vt 0.380000 0.485000
vt 0.380000 1.000000
vt 0.000000 1.000000
vt -0.000000 0.485000
vt 0.380000 0.485000
vt 0.380000 1.000000
vt 0.000000 1.000000
vt -0.000000 0.485000
vt 0.380000 0.485000
vt 0.380000 1.000000
vt 0.000000 1.000000
vt -0.000000 0.485000
vt 0.380000 0.485000
vt 0.380000 1.000000
vt 0.000000 1.000000
vt -0.000000 0.485000
vt 0.380000 0.485000
vt 0.380000 1.000000
vt 0.000000 1.000000
vt -0.000000 0.485000
vt 0.380000 0.485000
vt 0.380000 1.000000
vt 0.000000 1.000000
vt -0.000000 0.485000
vt 0.380000 0.485000
vt 0.380000 1.000000
vt 0.000000 1.000000
vt -0.000000 0.485000
vt 0.380000 0.485000
vt 0.380000 1.000000
vt 0.000000 1.000000
vt -0.000000 0.485000
vt 0.380000 0.485000
vt 0.380000 1.000000
vt 0.000000 1.000000
vt -0.000000 0.485000
vt 0.380000 0.485000
vt 0.380000 1.000000
vt 0.000000 1.000000
vt -0.000000 0.485000
vt 0.380000 0.485000
vt 0.380000 1.000000
vt 0.000000 1.000000
vt -0.000000 0.485000
vt 0.380000 0.485000
vt 0.380000 1.000000
vt 0.000000 1.000000
vt -0.000000 0.485000
vt 0.380000 0.485000
vt 0.380000 1.000000
vt 0.000000 1.000000
vt -0.000000 0.485000
vt 0.380000 0.485000
vt 0.380000 1.000000
vt 0.000000 1.000000
vt -0.000000 0.485000
vt 0.380000 0.485000
vt 0.380000 1.000000
vt 0.000000 1.000000
vt -0.000000 0.485000
vt 0.380000 0.485000
vt 0.380000 1.000000
vt 0.000000 1.000000
vt -0.000000 0.485000
vt 0.380000 0.485000
vt 0.380000 1.000000
vt 0.000000 1.000000
vt -0.000000 0.485000
vt 0.380000 0.485000
vt 0.380000 1.000000
vt 0.000000 1.000000
vt -0.000000 0.485000
vt 0.000000 0.485000
vt 0.380000 0.485000
vt 0.380000 1.000000
vt 0.000000 1.000000
vt 0.380000 1.000000
vt 0.000000 1.000000
vt 0.115000 0.485000
vt 0.265000 0.485000
vt 0.380000 0.485000
vt 0.380000 1.000000
vt 0.000000 1.000000
vt -0.000000 0.485000
vt 0.380000 0.485000
vt 0.380000 1.000000
vt 0.000000 1.000000
vt -0.000000 0.485000
vt 0.380000 1.000000
vt 0.000000 1.000000
vt 0.115000 0.485000
vt 0.265000 0.485000
vt 0.000000 0.485000
vt 0.380000 0.485000
vt 0.380000 1.000000
vt 0.000000 1.000000
vt 0.380000 0.485000
vt 0.380000 1.000000
vt 0.000000 1.000000
vt -0.000000 0.485000
vt 0.380000 0.485000
vt 0.380000 1.000000
vt 0.000000 1.000000
vt -0.000000 0.485000
vt 0.380000 0.485000
vt 0.380000 1.000000
vt 0.000000 1.000000
vt -0.000000 0.485000
vt 0.380000 0.485000
vt 0.380000 1.000000
vt 0.000000 1.000000
vt -0.000000 0.485000
vt 0.380000 0.485000
vt 0.380000 1.000000
vt 0.000000 1.000000
vt -0.000000 0.485000
vt 0.380000 0.485000
vt 0.380000 1.000000
vt 0.000000 1.000000
vt -0.000000 0.485000
vt 0.000000 0.485000
vt 0.380000 0.485000
vt 0.380000 1.000000
vt 0.000000 1.000000
vt 0.380000 1.000000
vt 0.000000 1.000000
vt 0.115000 0.485000
vt 0.265000 0.485000
vt 0.380000 0.485000
vt 0.380000 1.000000
vt 0.000000 1.000000
vt -0.000000 0.485000
vt 0.380000 0.485000
vt 0.380000 1.000000
vt 0.000000 1.000000
vt -0.000000 0.485000
vt 0.000000 1.000000
vt 0.000000 0.485000
vt 0.380000 0.485000
vt 0.380000 1.000000
vt 0.000000 0.485000
vt 0.380000 0.485000
vt 0.000000 1.000000
vt 0.000000 0.485000
vt 0.380000 0.485000
vt 0.380000 1.000000
vt 0.000000 0.485000
vt 0.380000 0.485000
vt 0.380000 1.000000
vt 0.000000 1.000000
vt 0.000000 0.485000
vt 0.380000 0.485000
vt 0.000000 1.000000
vt 0.000000 0.485000
vt 0.380000 0.485000
vt 0.000000 1.000000
vt 0.000000 0.485000
vt 0.380000 0.485000
vt 0.380000 1.000000
vt 0.000000 0.485000
vt 0.380000 0.485000
vt 0.380000 1.000000
vt 0.000000 1.000000
vt 0.000000 0.485000
vt 0.380000 0.485000
vt 0.380000 1.000000
vt 0.000000 1.000000
vt 0.000000 0.485000
vt 0.380000 0.485000
vt 0.380000 1.000000
vt 0.000000 1.000000
vt 0.000000 0.485000
vt 0.380000 0.485000
vt 0.380000 1.000000
vt 0.000000 1.000000
vt 0.000000 0.485000
vt 0.380000 0.485000
vt 0.380000 1.000000
vt 0.000000 1.000000
vt 0.000000 0.485000
vt 0.380000 0.485000
vt 0.380000 1.000000
vt 0.000000 1.000000
vt 0.000000 0.485000
vt 0.380000 0.485000
vt 0.380000 1.000000
vt 0.000000 1.000000
vt 0.000000 0.485000
vt 0.380000 0.485000
vt 0.380000 1.000000
vt 0.000000 1.000000
vt 1.000000 1.000000
vt 0.735000 1.000000
vt 0.735000 0.740000
vt 1.000000 0.740000
vt 1.000000 1.000000
vt 0.735000 1.000000
vt 0.735000 0.740000
vt 1.000000 0.740000
vt 1.000000 1.000000
vt 0.735000 1.000000
vt 0.735000 0.740000
vt 1.000000 0.740000
vt 1.000000 1.000000
vt 0.735000 1.000000
vt 0.735000 0.740000
vt 1.000000 0.740000
vt 0.380000 1.000000
vt 0.000000 1.000000
vt 0.115000 0.485000
vt 0.265000 0.485000
vt 0.380000 1.000000
vt 0.000000 1.000000
vt 0.115000 0.485000
vt 0.265000 0.485000
vt 0.380000 1.000000
vt 0.000000 1.000000
vt 0.115000 0.485000
vt 0.265000 0.485000
vt 0.380000 1.000000
vt 0.000000 1.000000
vt 0.115000 0.485000
vt 0.265000 0.485000
vt 1.000000 1.000000
vt 0.735000 1.000000
vt 1.000000 0.740000
vt 1.000000 1.000000
vt 0.735000 1.000000
vt 0.735000 0.740000
vt 1.000000 1.000000
vt 0.735000 1.000000
vt 0.735000 0.740000
vt 1.000000 0.740000
vt 1.000000 1.000000
vt 0.735000 1.000000
vt 1.000000 0.740000
vt 1.000000 1.000000
vt 0.735000 1.000000
vt 0.735000 0.740000
vt 1.000000 1.000000
vt 0.735000 1.000000
vt 0.735000 0.740000
vt 1.000000 1.000000
vt 0.735000 1.000000
vt 1.000000 0.740000
vt 1.000000 1.000000
vt 0.735000 1.000000
vt 0.735000 0.740000
vt 1.000000 0.740000
vn -0.7441 0.6221 -0.2435
vn 0.1847 0.6045 -0.7749
vn 0.7441 0.6221 0.2435
vn -0.1847 0.6045 0.7749
vn -0.6711 -0.7081 0.2196
vn -0.1001 0.9019 -0.4202
vn -0.2286 -0.1668 0.9591
vn 0.9358 -0.1744 0.3063
vn 0.2286 -0.1668 -0.9591
vn -0.9358 -0.1744 -0.3063
vn -0.8553 -0.4360 -0.2799
vn 0.2104 -0.4199 -0.8828
vn 0.8553 -0.4360 0.2799
vn -0.2104 -0.4199 0.8828
vn -0.2254 0.2338 0.9458
vn 0.9216 0.2442 0.3016
vn 0.2254 0.2338 -0.9458
vn -0.9216 0.2442 -0.3016
vn -0.2254 0.2338 -0.9458
vn 0.2254 0.2338 0.9458
vn 0.2104 -0.4199 0.8828
vn -0.2104 -0.4199 -0.8828
vn -0.2286 -0.1668 -0.9591
vn 0.2286 -0.1668 0.9591
vn 0.3953 0.9094 -0.1294
vn -0.1674 -0.6916 -0.7026
vn 0.1847 0.6045 0.7749
vn -0.1847 0.6045 -0.7749
vn 0.1674 -0.6916 0.7026
vn 0.1001 0.9019 0.4202
vn -0.9216 0.2442 0.3016
vn 0.9216 0.2442 -0.3016
vn 0.8553 -0.4360 -0.2799
vn -0.8553 -0.4360 0.2799
vn -0.9358 -0.1744 0.3063
vn 0.9358 -0.1744 -0.3063
vn 0.3953 0.9094 0.1294
vn -0.6711 -0.7081 -0.2196
vn 0.7441 0.6221 -0.2435
vn -0.7441 0.6221 0.2435
vn 0.0000 1.0000 0.0000
vn -0.3953 0.9094 0.1294
vn -0.3953 0.9094 -0.1294
vn -0.1001 0.9019 0.4202
vn 0.1001 0.9019 -0.4202
vn 0.1321 0.8218 -0.5543
vn -0.1321 0.8218 0.5543
vn -0.5247 0.8338 -0.1717
vn -0.5247 0.8338 0.1717
vn 0.5247 0.8338 0.1717
vn 0.1321 0.8218 0.5543
vn 0.5247 0.8338 -0.1717
vn -0.1321 0.8218 -0.5543
vn -0.9504 0.0000 0.3110
vn 0.9504 0.0000 -0.3110
vn 0.2318 0.0000 -0.9728
vn 0.9504 0.0000 0.3110
vn 0.6711 -0.7081 -0.2196
vn -0.1674 -0.6916 0.7026
vn 0.6711 -0.7081 0.2196
vn 0.1674 -0.6916 -0.7026
vn 0.0000 -1.0000 0.0000
vn -0.9504 0.0000 -0.3110
vn -0.2318 0.0000 0.9728
vn 0.2318 0.0000 0.9728
vn -0.2318 0.0000 -0.9728
usemtl Material
s off
f 40/1/1 32/2/1 4/3/1 18/4/1
f 30/5/2 22/6/2 8/7/2 19/8/2
f 39/9/3 34/10/3 6/11/3 20/12/3
f 29/13/4 24/14/4 2/15/4 17/16/4
f 1/17/5 31/18/5 59/19/5 60/20/5
f 56/21/6 55/22/6 44/23/6 45/24/6
f 28/25/7 25/26/7 9/27/7 16/28/7
f 38/29/8 35/30/8 12/31/8 15/32/8
f 27/33/9 26/34/9 11/35/9 14/36/9
f 37/37/10 36/38/10 10/39/10 13/40/10
f 31/41/11 37/42/11 13/43/11 3/44/11
f 21/45/12 27/46/12 14/47/12 7/48/12
f 33/49/13 38/50/13 15/51/13 5/52/13
f 23/53/14 28/54/14 16/55/14 1/56/14
f 25/57/15 29/58/15 17/59/15 9/60/15
f 35/61/16 39/62/16 20/63/16 12/64/16
f 26/65/17 30/66/17 19/67/17 11/68/17
f 36/69/18 40/70/18 18/71/18 10/72/18
f 10/73/19 18/74/19 30/75/19 26/76/19
f 12/77/20 20/78/20 29/79/20 25/80/20
f 5/81/21 15/82/21 28/83/21 23/84/21
f 3/85/22 13/86/22 27/87/22 21/88/22
f 13/89/23 10/90/23 26/91/23 27/92/23
f 15/93/24 12/94/24 25/95/24 28/96/24
f 54/97/25 41/98/25 46/99/25 47/100/25
f 3/101/26 21/102/26 61/103/26 62/104/26
f 20/105/27 6/106/27 24/107/27 29/108/27
f 18/109/28 4/110/28 22/111/28 30/112/28
f 5/113/29 23/114/29 65/115/29 66/116/29
f 52/117/30 53/118/30 48/119/30 49/120/30
f 9/121/31 17/122/31 40/123/31 36/124/31
f 11/125/32 19/126/32 39/127/32 35/128/32
f 7/129/33 14/130/33 38/131/33 33/132/33
f 1/133/34 16/134/34 37/135/34 31/136/34
f 16/137/35 9/138/35 36/139/35 37/140/35
f 14/141/36 11/142/36 35/143/36 38/144/36
f 53/145/37 54/146/37 47/147/37 48/148/37
f 31/149/38 3/150/38 62/151/38 59/152/38
f 19/153/39 8/154/39 34/155/39 39/156/39
f 17/157/40 2/158/40 32/159/40 40/160/40
f 51/161/41 43/162/41 50/163/41 49/164/41
f 47/165/41 51/166/41 49/164/41 48/148/41
f 46/167/41 45/168/41 51/166/41 47/147/41
f 45/168/41 44/169/41 43/170/41 51/161/41
f 58/171/42 57/172/42 50/173/42 43/174/42
f 55/175/43 58/176/43 43/170/43 44/177/43
f 57/178/44 52/179/44 49/164/44 50/180/44
f 41/181/45 56/182/45 45/183/45 46/167/45
f 8/184/46 22/185/46 56/186/46 41/187/46
f 2/188/47 24/189/47 52/190/47 57/191/47
f 4/192/48 32/193/48 58/194/48 55/195/48
f 32/196/49 2/197/49 57/198/49 58/199/49
f 6/200/50 34/201/50 54/202/50 53/203/50
f 24/204/51 6/205/51 53/206/51 52/207/51
f 34/208/52 8/209/52 41/210/52 54/211/52
f 22/212/53 4/213/53 55/214/53 56/215/53
f 60/216/54 59/217/54 42/218/54 67/219/54
f 64/220/55 63/221/55 70/222/55 71/223/55
f 61/224/56 64/225/56 71/226/56 68/227/56
f 63/228/57 66/229/57 73/230/57 70/231/57
f 7/232/58 33/233/58 63/234/58 64/235/58
f 23/236/59 1/237/59 60/238/59 65/239/59
f 33/240/60 5/241/60 66/242/60 63/243/60
f 21/244/61 7/245/61 64/246/61 61/247/61
f 74/248/62 70/249/62 73/230/62 72/250/62
f 42/251/62 74/252/62 72/253/62 67/219/62
f 69/254/62 68/255/62 74/256/62 42/257/62
f 68/258/62 71/259/62 70/222/62 74/260/62
f 59/261/63 62/262/63 69/263/63 42/257/63
f 65/264/64 60/265/64 67/266/64 72/250/64
f 66/267/65 65/268/65 72/253/65 73/269/65
f 62/270/66 61/271/66 68/272/66 69/273/66
